<svg width="40" height="40" viewBox="0 0 40 40" fill="none" xmlns="http://www.w3.org/2000/svg">
<path d="M20 0C16.0444 0 12.1776 1.17298 8.8886 3.37061C5.59962 5.56823 3.03617 8.69181 1.52242 12.3463C0.00866534 16.0009 -0.387401 20.0222 0.384303 23.9018C1.15601 27.7814 3.06082 31.3451 5.85787 34.1421C8.65492 36.9392 12.2186 38.844 16.0982 39.6157C19.9778 40.3874 23.9991 39.9913 27.6537 38.4776C31.3082 36.9638 34.4318 34.4004 36.6294 31.1114C38.827 27.8224 40 23.9556 40 20C39.9938 14.6976 37.8846 9.61412 34.1353 5.86474C30.3859 2.11536 25.3024 0.00622716 20 0ZM21.1765 37.6078V24.3137H26.2745C26.5865 24.3137 26.8858 24.1898 27.1064 23.9691C27.327 23.7485 27.451 23.4493 27.451 23.1373C27.451 22.8252 27.327 22.526 27.1064 22.3054C26.8858 22.0847 26.5865 21.9608 26.2745 21.9608H21.1765V16.8627C21.1765 15.9267 21.5483 15.029 22.2102 14.3671C22.8721 13.7052 23.7698 13.3333 24.7059 13.3333H27.8431C28.1552 13.3333 28.4544 13.2094 28.675 12.9887C28.8957 12.7681 29.0196 12.4689 29.0196 12.1569C29.0196 11.8448 28.8957 11.5456 28.675 11.325C28.4544 11.1043 28.1552 10.9804 27.8431 10.9804H24.7059C23.1458 10.9804 21.6496 11.6001 20.5464 12.7033C19.4433 13.8064 18.8235 15.3026 18.8235 16.8627V21.9608H13.7255C13.4135 21.9608 13.1142 22.0847 12.8936 22.3054C12.673 22.526 12.549 22.8252 12.549 23.1373C12.549 23.4493 12.673 23.7485 12.8936 23.9691C13.1142 24.1898 13.4135 24.3137 13.7255 24.3137H18.8235V37.6078C14.2553 37.3026 9.98458 35.2339 6.91315 31.8387C3.84172 28.4434 2.21007 23.9873 2.36277 19.4115C2.51546 14.8356 4.44056 10.4983 7.73151 7.31531C11.0225 4.13235 15.4216 2.35298 20 2.35298C24.5784 2.35298 28.9776 4.13235 32.2685 7.31531C35.5595 10.4983 37.4845 14.8356 37.6372 19.4115C37.7899 23.9873 36.1583 28.4434 33.0869 31.8387C30.0154 35.2339 25.7447 37.3026 21.1765 37.6078Z" fill="white"/>
</svg>
