<svg width="36" height="36" viewBox="0 0 36 36" fill="none" xmlns="http://www.w3.org/2000/svg">
<path d="M18 9.88235C16.3945 9.88235 14.825 10.3584 13.4901 11.2504C12.1551 12.1424 11.1147 13.4102 10.5003 14.8935C9.88587 16.3768 9.72511 18.009 10.0383 19.5837C10.3516 21.1583 11.1247 22.6048 12.26 23.74C13.3952 24.8753 14.8417 25.6484 16.4163 25.9617C17.991 26.2749 19.6232 26.1141 21.1065 25.4997C22.5898 24.8853 23.8576 23.8449 24.7496 22.5099C25.6416 21.175 26.1176 19.6055 26.1176 18C26.1148 15.8479 25.2587 13.7848 23.7369 12.2631C22.2152 10.7413 20.1521 9.88515 18 9.88235ZM18 24C16.8133 24 15.6533 23.6481 14.6666 22.9888C13.6799 22.3295 12.9108 21.3925 12.4567 20.2961C12.0026 19.1997 11.8838 17.9933 12.1153 16.8295C12.3468 15.6656 12.9182 14.5965 13.7574 13.7574C14.5965 12.9182 15.6656 12.3468 16.8295 12.1153C17.9933 11.8838 19.1997 12.0026 20.2961 12.4567C21.3925 12.9108 22.3295 13.6799 22.9888 14.6666C23.6481 15.6533 24 16.8133 24 18C24 19.5913 23.3679 21.1174 22.2426 22.2426C21.1174 23.3679 19.5913 24 18 24ZM26.4706 0H9.52941C7.00291 0.00280255 4.5807 1.00769 2.7942 2.7942C1.00769 4.5807 0.00280255 7.00291 0 9.52941V26.4706C0.00280255 28.9971 1.00769 31.4193 2.7942 33.2058C4.5807 34.9923 7.00291 35.9972 9.52941 36H26.4706C28.9971 35.9972 31.4193 34.9923 33.2058 33.2058C34.9923 31.4193 35.9972 28.9971 36 26.4706V9.52941C35.9972 7.00291 34.9923 4.5807 33.2058 2.7942C31.4193 1.00769 28.9971 0.00280255 26.4706 0ZM33.8824 26.4706C33.8824 28.4363 33.1015 30.3215 31.7115 31.7115C30.3215 33.1015 28.4363 33.8824 26.4706 33.8824H9.52941C7.56369 33.8824 5.67848 33.1015 4.2885 31.7115C2.89853 30.3215 2.11765 28.4363 2.11765 26.4706V9.52941C2.11765 7.56369 2.89853 5.67848 4.2885 4.2885C5.67848 2.89853 7.56369 2.11765 9.52941 2.11765H26.4706C28.4363 2.11765 30.3215 2.89853 31.7115 4.2885C33.1015 5.67848 33.8824 7.56369 33.8824 9.52941V26.4706ZM28.9412 8.82353C28.9412 9.17256 28.8377 9.51374 28.6438 9.80395C28.4499 10.0942 28.1743 10.3203 27.8518 10.4539C27.5293 10.5875 27.1745 10.6224 26.8322 10.5543C26.4899 10.4862 26.1754 10.3182 25.9286 10.0714C25.6818 9.82457 25.5138 9.51013 25.4457 9.16781C25.3776 8.82549 25.4125 8.47066 25.5461 8.14821C25.6797 7.82575 25.9058 7.55014 26.1961 7.35623C26.4863 7.16232 26.8274 7.05882 27.1765 7.05882C27.6445 7.05882 28.0934 7.24475 28.4243 7.57569C28.7553 7.90664 28.9412 8.3555 28.9412 8.82353Z" fill="white"/>
</svg>
