<svg width="62" height="48" viewBox="0 0 62 48" fill="none" xmlns="http://www.w3.org/2000/svg">
<g clip-path="url(#clip0_237_325)">
<mask id="path-1-outside-1_237_325" maskUnits="userSpaceOnUse" x="-0.0150452" y="-0.99968" width="63" height="50" fill="black">
<rect fill="white" x="-0.0150452" y="-0.99968" width="63" height="50"/>
<path d="M60.8055 21.175L58.0106 22.4035C57.8184 22.488 57.6657 22.6407 57.583 22.8318L56.0038 26.4477L36.8993 10.1568C36.8654 10.1275 36.8238 10.1167 36.7865 10.0939C36.7466 10.069 36.7148 10.0355 36.6699 10.0171C36.6524 10.01 36.6365 10.0079 36.619 10.0008C36.6118 9.99865 36.6047 9.99594 36.5976 9.99378C32.9338 8.54645 30.3229 10.0024 28.776 11.492C27.4629 12.7552 26.6049 14.4289 26.3585 16.2043C26.1925 17.4004 25.3093 18.9479 22.043 19.5289C19.8888 19.915 18.5889 19.4791 18.1864 18.2386C17.998 17.6598 18.0944 16.9662 18.4574 16.2856C19.4206 14.4771 19.8143 11.4216 19.9622 9.76149C20.0038 9.2915 20.1555 8.86375 20.4107 8.4896C21.2561 7.25452 23.4656 4.85044 28.7678 2.63261C36.2247 -0.488372 47.0498 4.89971 47.1571 4.9544C47.3515 5.05186 47.576 5.07081 47.7835 5.008L52.0327 3.71553C52.4741 3.58179 52.7216 3.11884 52.5858 2.68297C52.45 2.24709 51.9851 1.9991 51.5416 2.13609L47.6099 3.33164C45.6907 2.41657 35.6443 -2.03749 28.1162 1.11002C27.4815 1.37588 26.8934 1.64553 26.3365 1.91626L16.2896 2.17345L12.0042 0.610253C11.5706 0.450522 11.0903 0.671438 10.9304 1.09973C10.7706 1.52803 10.9923 2.00343 11.4255 2.16154L15.8614 3.77943C15.9539 3.813 16.0519 3.83032 16.1505 3.83032H16.1719L23.269 3.64893C20.9013 5.20942 19.6435 6.66108 19.0264 7.5637C18.6097 8.1723 18.3638 8.86266 18.297 9.61584C18.1864 10.8536 17.8365 13.9048 16.979 15.5145C16.404 16.592 16.2677 17.7388 16.594 18.7449C16.9281 19.7737 17.8913 21.3168 20.6708 21.3163C21.1663 21.3163 21.721 21.267 22.3392 21.1576C26.8179 20.3611 27.8183 17.8536 28.0154 16.4301C28.2115 15.018 28.8959 13.6849 29.9429 12.6773C31.6596 11.0247 33.6752 10.6381 35.9279 11.5115L57.6991 30.076C58.631 30.8709 58.8134 32.23 58.1229 33.2371C57.5025 34.1413 56.5612 34.7396 55.4715 34.921C54.3846 35.1046 53.2949 34.8441 52.4089 34.1911L52.3481 34.1467C52.3481 34.1467 52.3465 34.1451 52.3454 34.144L49.5413 32.0773L49.5396 32.0767L37.086 22.8973C36.7159 22.6239 36.1913 22.6997 35.9164 23.0657C35.6399 23.4318 35.7166 23.9499 36.0867 24.2223L51.3488 35.4717C52.3673 36.2249 52.6258 37.6413 51.9364 38.6988C51.4282 39.4785 50.6391 39.994 49.7148 40.151C48.7861 40.3113 47.8711 40.0812 47.1286 39.5148L45.2871 38.1059L45.286 38.1048L42.0854 35.6563L34.5749 29.9098C34.2102 29.6299 33.6845 29.6965 33.4025 30.0576C33.1194 30.4188 33.1867 30.938 33.552 31.2169L44.2681 39.4162C44.797 39.8229 45.1333 40.4087 45.2148 41.0666C45.2959 41.7272 45.1108 42.378 44.6935 42.8989C43.8503 43.9526 42.3264 44.1605 41.2268 43.3754L37.6698 40.8387L37.3467 40.608L30.5699 35.7749C30.1931 35.5064 29.6713 35.5908 29.4024 35.9617C29.1319 36.3326 29.2168 36.8492 29.5914 37.1161L35.6607 41.4446L36.3682 41.9492L36.6918 42.1799C37.6035 42.8302 37.8357 44.069 37.2164 45.0079C36.7564 45.7237 36.0051 46.2013 35.1569 46.3193C34.3011 46.4368 33.4523 46.1818 32.787 45.5981L29.7611 43.1377C29.9517 42.697 30.0551 42.2205 30.0551 41.7272C30.0551 40.7683 29.6779 39.8662 28.9918 39.1888L28.8773 39.0757C28.108 38.3149 27.0194 37.9965 25.9697 38.0886C26.0764 37.0511 25.7452 35.9774 24.9435 35.1847L24.8291 35.0716C24.0214 34.274 22.9268 33.9475 21.8716 34.0596C21.8858 33.9307 21.9099 33.804 21.9099 33.6724C21.9099 32.7135 21.5326 31.8114 20.8465 31.1335L20.7321 31.0203C19.8713 30.1703 18.6836 29.8448 17.5654 30.0284C17.6744 28.8404 17.2889 27.6162 16.3712 26.7087L16.2332 26.5722C14.7564 25.1119 12.4527 24.9782 10.8094 26.1461L6.96817 22.9287C6.91944 22.8881 6.86577 22.8524 6.80883 22.8237L2.20205 20.4933C1.78973 20.2853 1.28705 20.4456 1.07678 20.8528C0.866511 21.2589 1.02969 21.7576 1.44037 21.9655L5.96118 24.2521L9.57081 27.2756L6.38883 30.422C4.74829 32.0442 4.74829 34.6844 6.38883 36.3072L6.52682 36.4436C7.3471 37.2547 8.42473 37.6603 9.50291 37.6603C9.91359 37.6603 10.3193 37.5823 10.7158 37.4648C10.7459 38.3783 11.1101 39.2354 11.7677 39.8857L11.8821 39.9989C12.5902 40.699 13.5199 41.0493 14.4497 41.0493C14.7914 41.0493 15.1287 40.9854 15.4595 40.8912C15.4912 41.7667 15.834 42.6342 16.5081 43.3007L16.6225 43.4138C17.3305 44.1134 18.2603 44.4632 19.1896 44.4632C19.7081 44.4632 20.2217 44.343 20.7014 44.1259C20.8104 44.892 21.1515 45.6024 21.7128 46.1574L21.8267 46.2706L21.8289 46.2728C22.515 46.9512 23.4267 47.3243 24.3965 47.3243C25.3662 47.3243 26.2774 46.9512 26.9635 46.2728L28.7782 44.4784L31.7017 46.8554C32.5488 47.5993 33.6325 48.0011 34.7495 48.0011C34.962 48.0011 35.1761 47.987 35.3897 47.9573C36.7246 47.7721 37.9052 47.0205 38.6231 45.9046C39.0146 45.3117 39.2057 44.6484 39.2276 43.9883L40.25 44.7177C40.9947 45.2494 41.856 45.5061 42.7091 45.5061C43.951 45.5061 45.176 44.9624 46.005 43.9266C46.6101 43.1718 46.9025 42.2524 46.8861 41.3032C47.5897 41.659 48.3689 41.8517 49.1601 41.8517C49.4399 41.8517 49.7203 41.8285 49.9996 41.7813C51.3713 41.548 52.5902 40.7509 53.3436 39.5944C53.9487 38.6658 54.1119 37.5753 53.8961 36.5617C54.1902 36.6082 54.4886 36.6326 54.7892 36.6326C55.1085 36.6326 55.4299 36.6061 55.7519 36.5525C57.295 36.2947 58.6294 35.4473 59.5077 34.1657C60.6752 32.4639 60.3674 30.1675 58.7926 28.8247L57.3322 27.5799L58.9903 23.7843L61.4867 22.6867C61.9088 22.5015 62.0989 22.0126 61.911 21.5951C61.7238 21.1787 61.2293 20.9876 60.8071 21.1755L60.8055 21.175ZM7.70795 35.2741L7.56996 35.1376C6.58103 34.1597 6.58103 32.5684 7.56996 31.5905L11.4627 27.7413C12.4516 26.7634 14.0609 26.7634 15.0499 27.7413L15.1879 27.8777C16.1757 28.8545 16.1762 30.4437 15.1906 31.4216L11.766 34.8084L11.2951 35.2741C10.3062 36.2509 8.69687 36.2519 7.70795 35.2741ZM13.0627 38.8293L12.9483 38.7161C12.5787 38.3501 12.375 37.8633 12.375 37.3468C12.375 36.8302 12.5787 36.3429 12.9483 35.9774L16.3701 32.5938C16.3701 32.5938 16.3717 32.5917 16.3728 32.5906L16.7786 32.1894C17.1608 31.812 17.6624 31.6235 18.1639 31.6235C18.6655 31.6235 19.1666 31.812 19.5488 32.1894L19.6632 32.3025C20.4265 33.0573 20.4265 34.2864 19.6632 35.0418L15.8329 38.8293C15.0674 39.5841 13.8255 39.5841 13.0627 38.8293ZM17.8031 42.2443L17.6887 42.1311C16.9259 41.3763 16.9259 40.1472 17.6887 39.3919L20.8756 36.2406C21.6389 35.4869 22.8808 35.4858 23.6457 36.2406L23.7602 36.3537C24.5033 37.0885 24.5098 38.2662 23.8056 39.0253C23.7859 39.0443 23.7618 39.0567 23.7427 39.0757L21.7133 41.0823C21.652 41.143 21.6066 41.2139 21.5507 41.2783L20.5738 42.2443C19.8111 42.9986 18.5675 42.9986 17.8031 42.2443ZM25.7791 45.1032C25.0158 45.8569 23.7739 45.858 23.01 45.1043L22.895 44.99C22.1624 44.2656 22.152 43.115 22.8255 42.3553L24.9419 40.2626C24.961 40.2436 24.9736 40.2209 24.9922 40.2014C25.7397 39.5272 26.9723 39.5332 27.6934 40.2452L27.8079 40.3584C28.1775 40.7239 28.3812 41.2101 28.3812 41.7277C28.3812 42.1073 28.2695 42.4685 28.0653 42.7793C28.0554 42.7895 28.0423 42.7944 28.0329 42.8052C28.0182 42.8231 28.0143 42.8453 28.0017 42.8637C27.942 42.9444 27.8807 43.0251 27.8079 43.0971L25.7786 45.1038L25.7791 45.1032Z"/>
</mask>
<path d="M60.8055 21.175L58.0106 22.4035C57.8184 22.488 57.6657 22.6407 57.583 22.8318L56.0038 26.4477L36.8993 10.1568C36.8654 10.1275 36.8238 10.1167 36.7865 10.0939C36.7466 10.069 36.7148 10.0355 36.6699 10.0171C36.6524 10.01 36.6365 10.0079 36.619 10.0008C36.6118 9.99865 36.6047 9.99594 36.5976 9.99378C32.9338 8.54645 30.3229 10.0024 28.776 11.492C27.4629 12.7552 26.6049 14.4289 26.3585 16.2043C26.1925 17.4004 25.3093 18.9479 22.043 19.5289C19.8888 19.915 18.5889 19.4791 18.1864 18.2386C17.998 17.6598 18.0944 16.9662 18.4574 16.2856C19.4206 14.4771 19.8143 11.4216 19.9622 9.76149C20.0038 9.2915 20.1555 8.86375 20.4107 8.4896C21.2561 7.25452 23.4656 4.85044 28.7678 2.63261C36.2247 -0.488372 47.0498 4.89971 47.1571 4.9544C47.3515 5.05186 47.576 5.07081 47.7835 5.008L52.0327 3.71553C52.4741 3.58179 52.7216 3.11884 52.5858 2.68297C52.45 2.24709 51.9851 1.9991 51.5416 2.13609L47.6099 3.33164C45.6907 2.41657 35.6443 -2.03749 28.1162 1.11002C27.4815 1.37588 26.8934 1.64553 26.3365 1.91626L16.2896 2.17345L12.0042 0.610253C11.5706 0.450522 11.0903 0.671438 10.9304 1.09973C10.7706 1.52803 10.9923 2.00343 11.4255 2.16154L15.8614 3.77943C15.9539 3.813 16.0519 3.83032 16.1505 3.83032H16.1719L23.269 3.64893C20.9013 5.20942 19.6435 6.66108 19.0264 7.5637C18.6097 8.1723 18.3638 8.86266 18.297 9.61584C18.1864 10.8536 17.8365 13.9048 16.979 15.5145C16.404 16.592 16.2677 17.7388 16.594 18.7449C16.9281 19.7737 17.8913 21.3168 20.6708 21.3163C21.1663 21.3163 21.721 21.267 22.3392 21.1576C26.8179 20.3611 27.8183 17.8536 28.0154 16.4301C28.2115 15.018 28.8959 13.6849 29.9429 12.6773C31.6596 11.0247 33.6752 10.6381 35.9279 11.5115L57.6991 30.076C58.631 30.8709 58.8134 32.23 58.1229 33.2371C57.5025 34.1413 56.5612 34.7396 55.4715 34.921C54.3846 35.1046 53.2949 34.8441 52.4089 34.1911L52.3481 34.1467C52.3481 34.1467 52.3465 34.1451 52.3454 34.144L49.5413 32.0773L49.5396 32.0767L37.086 22.8973C36.7159 22.6239 36.1913 22.6997 35.9164 23.0657C35.6399 23.4318 35.7166 23.9499 36.0867 24.2223L51.3488 35.4717C52.3673 36.2249 52.6258 37.6413 51.9364 38.6988C51.4282 39.4785 50.6391 39.994 49.7148 40.151C48.7861 40.3113 47.8711 40.0812 47.1286 39.5148L45.2871 38.1059L45.286 38.1048L42.0854 35.6563L34.5749 29.9098C34.2102 29.6299 33.6845 29.6965 33.4025 30.0576C33.1194 30.4188 33.1867 30.938 33.552 31.2169L44.2681 39.4162C44.797 39.8229 45.1333 40.4087 45.2148 41.0666C45.2959 41.7272 45.1108 42.378 44.6935 42.8989C43.8503 43.9526 42.3264 44.1605 41.2268 43.3754L37.6698 40.8387L37.3467 40.608L30.5699 35.7749C30.1931 35.5064 29.6713 35.5908 29.4024 35.9617C29.1319 36.3326 29.2168 36.8492 29.5914 37.1161L35.6607 41.4446L36.3682 41.9492L36.6918 42.1799C37.6035 42.8302 37.8357 44.069 37.2164 45.0079C36.7564 45.7237 36.0051 46.2013 35.1569 46.3193C34.3011 46.4368 33.4523 46.1818 32.787 45.5981L29.7611 43.1377C29.9517 42.697 30.0551 42.2205 30.0551 41.7272C30.0551 40.7683 29.6779 39.8662 28.9918 39.1888L28.8773 39.0757C28.108 38.3149 27.0194 37.9965 25.9697 38.0886C26.0764 37.0511 25.7452 35.9774 24.9435 35.1847L24.8291 35.0716C24.0214 34.274 22.9268 33.9475 21.8716 34.0596C21.8858 33.9307 21.9099 33.804 21.9099 33.6724C21.9099 32.7135 21.5326 31.8114 20.8465 31.1335L20.7321 31.0203C19.8713 30.1703 18.6836 29.8448 17.5654 30.0284C17.6744 28.8404 17.2889 27.6162 16.3712 26.7087L16.2332 26.5722C14.7564 25.1119 12.4527 24.9782 10.8094 26.1461L6.96817 22.9287C6.91944 22.8881 6.86577 22.8524 6.80883 22.8237L2.20205 20.4933C1.78973 20.2853 1.28705 20.4456 1.07678 20.8528C0.866511 21.2589 1.02969 21.7576 1.44037 21.9655L5.96118 24.2521L9.57081 27.2756L6.38883 30.422C4.74829 32.0442 4.74829 34.6844 6.38883 36.3072L6.52682 36.4436C7.3471 37.2547 8.42473 37.6603 9.50291 37.6603C9.91359 37.6603 10.3193 37.5823 10.7158 37.4648C10.7459 38.3783 11.1101 39.2354 11.7677 39.8857L11.8821 39.9989C12.5902 40.699 13.5199 41.0493 14.4497 41.0493C14.7914 41.0493 15.1287 40.9854 15.4595 40.8912C15.4912 41.7667 15.834 42.6342 16.5081 43.3007L16.6225 43.4138C17.3305 44.1134 18.2603 44.4632 19.1896 44.4632C19.7081 44.4632 20.2217 44.343 20.7014 44.1259C20.8104 44.892 21.1515 45.6024 21.7128 46.1574L21.8267 46.2706L21.8289 46.2728C22.515 46.9512 23.4267 47.3243 24.3965 47.3243C25.3662 47.3243 26.2774 46.9512 26.9635 46.2728L28.7782 44.4784L31.7017 46.8554C32.5488 47.5993 33.6325 48.0011 34.7495 48.0011C34.962 48.0011 35.1761 47.987 35.3897 47.9573C36.7246 47.7721 37.9052 47.0205 38.6231 45.9046C39.0146 45.3117 39.2057 44.6484 39.2276 43.9883L40.25 44.7177C40.9947 45.2494 41.856 45.5061 42.7091 45.5061C43.951 45.5061 45.176 44.9624 46.005 43.9266C46.6101 43.1718 46.9025 42.2524 46.8861 41.3032C47.5897 41.659 48.3689 41.8517 49.1601 41.8517C49.4399 41.8517 49.7203 41.8285 49.9996 41.7813C51.3713 41.548 52.5902 40.7509 53.3436 39.5944C53.9487 38.6658 54.1119 37.5753 53.8961 36.5617C54.1902 36.6082 54.4886 36.6326 54.7892 36.6326C55.1085 36.6326 55.4299 36.6061 55.7519 36.5525C57.295 36.2947 58.6294 35.4473 59.5077 34.1657C60.6752 32.4639 60.3674 30.1675 58.7926 28.8247L57.3322 27.5799L58.9903 23.7843L61.4867 22.6867C61.9088 22.5015 62.0989 22.0126 61.911 21.5951C61.7238 21.1787 61.2293 20.9876 60.8071 21.1755L60.8055 21.175ZM7.70795 35.2741L7.56996 35.1376C6.58103 34.1597 6.58103 32.5684 7.56996 31.5905L11.4627 27.7413C12.4516 26.7634 14.0609 26.7634 15.0499 27.7413L15.1879 27.8777C16.1757 28.8545 16.1762 30.4437 15.1906 31.4216L11.766 34.8084L11.2951 35.2741C10.3062 36.2509 8.69687 36.2519 7.70795 35.2741ZM13.0627 38.8293L12.9483 38.7161C12.5787 38.3501 12.375 37.8633 12.375 37.3468C12.375 36.8302 12.5787 36.3429 12.9483 35.9774L16.3701 32.5938C16.3701 32.5938 16.3717 32.5917 16.3728 32.5906L16.7786 32.1894C17.1608 31.812 17.6624 31.6235 18.1639 31.6235C18.6655 31.6235 19.1666 31.812 19.5488 32.1894L19.6632 32.3025C20.4265 33.0573 20.4265 34.2864 19.6632 35.0418L15.8329 38.8293C15.0674 39.5841 13.8255 39.5841 13.0627 38.8293ZM17.8031 42.2443L17.6887 42.1311C16.9259 41.3763 16.9259 40.1472 17.6887 39.3919L20.8756 36.2406C21.6389 35.4869 22.8808 35.4858 23.6457 36.2406L23.7602 36.3537C24.5033 37.0885 24.5098 38.2662 23.8056 39.0253C23.7859 39.0443 23.7618 39.0567 23.7427 39.0757L21.7133 41.0823C21.652 41.143 21.6066 41.2139 21.5507 41.2783L20.5738 42.2443C19.8111 42.9986 18.5675 42.9986 17.8031 42.2443ZM25.7791 45.1032C25.0158 45.8569 23.7739 45.858 23.01 45.1043L22.895 44.99C22.1624 44.2656 22.152 43.115 22.8255 42.3553L24.9419 40.2626C24.961 40.2436 24.9736 40.2209 24.9922 40.2014C25.7397 39.5272 26.9723 39.5332 27.6934 40.2452L27.8079 40.3584C28.1775 40.7239 28.3812 41.2101 28.3812 41.7277C28.3812 42.1073 28.2695 42.4685 28.0653 42.7793C28.0554 42.7895 28.0423 42.7944 28.0329 42.8052C28.0182 42.8231 28.0143 42.8453 28.0017 42.8637C27.942 42.9444 27.8807 43.0251 27.8079 43.0971L25.7786 45.1038L25.7791 45.1032Z" fill="#FC8B84"/>
<path d="M60.8055 21.175L58.0106 22.4035C57.8184 22.488 57.6657 22.6407 57.583 22.8318L56.0038 26.4477L36.8993 10.1568C36.8654 10.1275 36.8238 10.1167 36.7865 10.0939C36.7466 10.069 36.7148 10.0355 36.6699 10.0171C36.6524 10.01 36.6365 10.0079 36.619 10.0008C36.6118 9.99865 36.6047 9.99594 36.5976 9.99378C32.9338 8.54645 30.3229 10.0024 28.776 11.492C27.4629 12.7552 26.6049 14.4289 26.3585 16.2043C26.1925 17.4004 25.3093 18.9479 22.043 19.5289C19.8888 19.915 18.5889 19.4791 18.1864 18.2386C17.998 17.6598 18.0944 16.9662 18.4574 16.2856C19.4206 14.4771 19.8143 11.4216 19.9622 9.76149C20.0038 9.2915 20.1555 8.86375 20.4107 8.4896C21.2561 7.25452 23.4656 4.85044 28.7678 2.63261C36.2247 -0.488372 47.0498 4.89971 47.1571 4.9544C47.3515 5.05186 47.576 5.07081 47.7835 5.008L52.0327 3.71553C52.4741 3.58179 52.7216 3.11884 52.5858 2.68297C52.45 2.24709 51.9851 1.9991 51.5416 2.13609L47.6099 3.33164C45.6907 2.41657 35.6443 -2.03749 28.1162 1.11002C27.4815 1.37588 26.8934 1.64553 26.3365 1.91626L16.2896 2.17345L12.0042 0.610253C11.5706 0.450522 11.0903 0.671438 10.9304 1.09973C10.7706 1.52803 10.9923 2.00343 11.4255 2.16154L15.8614 3.77943C15.9539 3.813 16.0519 3.83032 16.1505 3.83032H16.1719L23.269 3.64893C20.9013 5.20942 19.6435 6.66108 19.0264 7.5637C18.6097 8.1723 18.3638 8.86266 18.297 9.61584C18.1864 10.8536 17.8365 13.9048 16.979 15.5145C16.404 16.592 16.2677 17.7388 16.594 18.7449C16.9281 19.7737 17.8913 21.3168 20.6708 21.3163C21.1663 21.3163 21.721 21.267 22.3392 21.1576C26.8179 20.3611 27.8183 17.8536 28.0154 16.4301C28.2115 15.018 28.8959 13.6849 29.9429 12.6773C31.6596 11.0247 33.6752 10.6381 35.9279 11.5115L57.6991 30.076C58.631 30.8709 58.8134 32.23 58.1229 33.2371C57.5025 34.1413 56.5612 34.7396 55.4715 34.921C54.3846 35.1046 53.2949 34.8441 52.4089 34.1911L52.3481 34.1467C52.3481 34.1467 52.3465 34.1451 52.3454 34.144L49.5413 32.0773L49.5396 32.0767L37.086 22.8973C36.7159 22.6239 36.1913 22.6997 35.9164 23.0657C35.6399 23.4318 35.7166 23.9499 36.0867 24.2223L51.3488 35.4717C52.3673 36.2249 52.6258 37.6413 51.9364 38.6988C51.4282 39.4785 50.6391 39.994 49.7148 40.151C48.7861 40.3113 47.8711 40.0812 47.1286 39.5148L45.2871 38.1059L45.286 38.1048L42.0854 35.6563L34.5749 29.9098C34.2102 29.6299 33.6845 29.6965 33.4025 30.0576C33.1194 30.4188 33.1867 30.938 33.552 31.2169L44.2681 39.4162C44.797 39.8229 45.1333 40.4087 45.2148 41.0666C45.2959 41.7272 45.1108 42.378 44.6935 42.8989C43.8503 43.9526 42.3264 44.1605 41.2268 43.3754L37.6698 40.8387L37.3467 40.608L30.5699 35.7749C30.1931 35.5064 29.6713 35.5908 29.4024 35.9617C29.1319 36.3326 29.2168 36.8492 29.5914 37.1161L35.6607 41.4446L36.3682 41.9492L36.6918 42.1799C37.6035 42.8302 37.8357 44.069 37.2164 45.0079C36.7564 45.7237 36.0051 46.2013 35.1569 46.3193C34.3011 46.4368 33.4523 46.1818 32.787 45.5981L29.7611 43.1377C29.9517 42.697 30.0551 42.2205 30.0551 41.7272C30.0551 40.7683 29.6779 39.8662 28.9918 39.1888L28.8773 39.0757C28.108 38.3149 27.0194 37.9965 25.9697 38.0886C26.0764 37.0511 25.7452 35.9774 24.9435 35.1847L24.8291 35.0716C24.0214 34.274 22.9268 33.9475 21.8716 34.0596C21.8858 33.9307 21.9099 33.804 21.9099 33.6724C21.9099 32.7135 21.5326 31.8114 20.8465 31.1335L20.7321 31.0203C19.8713 30.1703 18.6836 29.8448 17.5654 30.0284C17.6744 28.8404 17.2889 27.6162 16.3712 26.7087L16.2332 26.5722C14.7564 25.1119 12.4527 24.9782 10.8094 26.1461L6.96817 22.9287C6.91944 22.8881 6.86577 22.8524 6.80883 22.8237L2.20205 20.4933C1.78973 20.2853 1.28705 20.4456 1.07678 20.8528C0.866511 21.2589 1.02969 21.7576 1.44037 21.9655L5.96118 24.2521L9.57081 27.2756L6.38883 30.422C4.74829 32.0442 4.74829 34.6844 6.38883 36.3072L6.52682 36.4436C7.3471 37.2547 8.42473 37.6603 9.50291 37.6603C9.91359 37.6603 10.3193 37.5823 10.7158 37.4648C10.7459 38.3783 11.1101 39.2354 11.7677 39.8857L11.8821 39.9989C12.5902 40.699 13.5199 41.0493 14.4497 41.0493C14.7914 41.0493 15.1287 40.9854 15.4595 40.8912C15.4912 41.7667 15.834 42.6342 16.5081 43.3007L16.6225 43.4138C17.3305 44.1134 18.2603 44.4632 19.1896 44.4632C19.7081 44.4632 20.2217 44.343 20.7014 44.1259C20.8104 44.892 21.1515 45.6024 21.7128 46.1574L21.8267 46.2706L21.8289 46.2728C22.515 46.9512 23.4267 47.3243 24.3965 47.3243C25.3662 47.3243 26.2774 46.9512 26.9635 46.2728L28.7782 44.4784L31.7017 46.8554C32.5488 47.5993 33.6325 48.0011 34.7495 48.0011C34.962 48.0011 35.1761 47.987 35.3897 47.9573C36.7246 47.7721 37.9052 47.0205 38.6231 45.9046C39.0146 45.3117 39.2057 44.6484 39.2276 43.9883L40.25 44.7177C40.9947 45.2494 41.856 45.5061 42.7091 45.5061C43.951 45.5061 45.176 44.9624 46.005 43.9266C46.6101 43.1718 46.9025 42.2524 46.8861 41.3032C47.5897 41.659 48.3689 41.8517 49.1601 41.8517C49.4399 41.8517 49.7203 41.8285 49.9996 41.7813C51.3713 41.548 52.5902 40.7509 53.3436 39.5944C53.9487 38.6658 54.1119 37.5753 53.8961 36.5617C54.1902 36.6082 54.4886 36.6326 54.7892 36.6326C55.1085 36.6326 55.4299 36.6061 55.7519 36.5525C57.295 36.2947 58.6294 35.4473 59.5077 34.1657C60.6752 32.4639 60.3674 30.1675 58.7926 28.8247L57.3322 27.5799L58.9903 23.7843L61.4867 22.6867C61.9088 22.5015 62.0989 22.0126 61.911 21.5951C61.7238 21.1787 61.2293 20.9876 60.8071 21.1755L60.8055 21.175ZM7.70795 35.2741L7.56996 35.1376C6.58103 34.1597 6.58103 32.5684 7.56996 31.5905L11.4627 27.7413C12.4516 26.7634 14.0609 26.7634 15.0499 27.7413L15.1879 27.8777C16.1757 28.8545 16.1762 30.4437 15.1906 31.4216L11.766 34.8084L11.2951 35.2741C10.3062 36.2509 8.69687 36.2519 7.70795 35.2741ZM13.0627 38.8293L12.9483 38.7161C12.5787 38.3501 12.375 37.8633 12.375 37.3468C12.375 36.8302 12.5787 36.3429 12.9483 35.9774L16.3701 32.5938C16.3701 32.5938 16.3717 32.5917 16.3728 32.5906L16.7786 32.1894C17.1608 31.812 17.6624 31.6235 18.1639 31.6235C18.6655 31.6235 19.1666 31.812 19.5488 32.1894L19.6632 32.3025C20.4265 33.0573 20.4265 34.2864 19.6632 35.0418L15.8329 38.8293C15.0674 39.5841 13.8255 39.5841 13.0627 38.8293ZM17.8031 42.2443L17.6887 42.1311C16.9259 41.3763 16.9259 40.1472 17.6887 39.3919L20.8756 36.2406C21.6389 35.4869 22.8808 35.4858 23.6457 36.2406L23.7602 36.3537C24.5033 37.0885 24.5098 38.2662 23.8056 39.0253C23.7859 39.0443 23.7618 39.0567 23.7427 39.0757L21.7133 41.0823C21.652 41.143 21.6066 41.2139 21.5507 41.2783L20.5738 42.2443C19.8111 42.9986 18.5675 42.9986 17.8031 42.2443ZM25.7791 45.1032C25.0158 45.8569 23.7739 45.858 23.01 45.1043L22.895 44.99C22.1624 44.2656 22.152 43.115 22.8255 42.3553L24.9419 40.2626C24.961 40.2436 24.9736 40.2209 24.9922 40.2014C25.7397 39.5272 26.9723 39.5332 27.6934 40.2452L27.8079 40.3584C28.1775 40.7239 28.3812 41.2101 28.3812 41.7277C28.3812 42.1073 28.2695 42.4685 28.0653 42.7793C28.0554 42.7895 28.0423 42.7944 28.0329 42.8052C28.0182 42.8231 28.0143 42.8453 28.0017 42.8637C27.942 42.9444 27.8807 43.0251 27.8079 43.0971L25.7786 45.1038L25.7791 45.1032Z" stroke="#FC8B84" mask="url(#path-1-outside-1_237_325)"/>
</g>
<defs>
<clipPath id="clip0_237_325">
<rect width="60.998" height="48" fill="white" transform="translate(0.983597)"/>
</clipPath>
</defs>
</svg>
