<svg width="28" height="23" viewBox="0 0 28 23" fill="none" xmlns="http://www.w3.org/2000/svg">
<path d="M4.55 1.00268e-08H23.45C24.6122 -7.81234e-05 25.7304 0.456484 26.5751 1.27603C27.4199 2.09557 27.9272 3.21597 27.993 4.40737L28 4.67188V18.3281C28.0001 19.5214 27.5554 20.6696 26.7573 21.537C25.9591 22.4043 24.8679 22.9253 23.7076 22.9928L23.45 23H4.55C3.38781 23.0001 2.26964 22.5435 1.42488 21.724C0.580113 20.9044 0.0727981 19.784 0.00700017 18.5926L9.76526e-09 18.3281V4.67188C-7.60854e-05 3.47855 0.444576 2.33043 1.24274 1.46304C2.0409 0.595653 3.13207 0.0747481 4.2924 0.00718767L4.55 1.00268e-08ZM25.9 7.72369L14.49 13.8906C14.3612 13.9604 14.2196 14.002 14.0742 14.0127C13.9289 14.0233 13.783 14.0028 13.6458 13.9524L13.5114 13.892L2.1 7.72512V18.3281C2.10002 18.9595 2.33124 19.5677 2.74775 20.0321C3.16426 20.4965 3.73562 20.7832 4.3484 20.8351L4.55 20.8438H23.45C24.0651 20.8437 24.6577 20.6061 25.11 20.1781C25.5623 19.7502 25.8413 19.1631 25.8916 18.5337L25.9 18.3281V7.72369ZM23.45 2.15625H4.55C3.93513 2.15627 3.34276 2.39368 2.89045 2.82135C2.43815 3.24902 2.15899 3.83568 2.1084 4.46487L2.1 4.67188V5.28856L14 11.7185L25.9 5.28713V4.67188C25.8999 4.04031 25.6685 3.43187 25.2517 2.96742C24.8349 2.50297 24.2632 2.21648 23.6502 2.16488L23.45 2.15625Z" fill="white"/>
</svg>
