<svg width="28" height="27" viewBox="0 0 28 27" fill="none" xmlns="http://www.w3.org/2000/svg">
<path d="M26.27 19.7173V23.4808C26.2715 23.8302 26.1999 24.176 26.0598 24.4961C25.9198 24.8163 25.7143 25.1036 25.4567 25.3398C25.1991 25.576 24.895 25.7558 24.5639 25.8678C24.2327 25.9797 23.8818 26.0213 23.5336 25.9898C19.671 25.5704 15.9607 24.2513 12.7008 22.1385C9.66793 20.2124 7.09657 17.6426 5.16934 14.6115C3.04794 11.3387 1.72776 7.6126 1.31573 3.73494C1.28436 3.38803 1.32562 3.03839 1.43686 2.70828C1.54811 2.37818 1.72691 2.07484 1.96189 1.81758C2.19687 1.56032 2.48287 1.35478 2.80168 1.21404C3.1205 1.0733 3.46514 1.00045 3.81367 1.00012H7.57942C8.18859 0.99413 8.77917 1.20972 9.24106 1.60671C9.70296 2.00371 10.0046 2.55501 10.0899 3.15787C10.2489 4.36227 10.5436 5.54484 10.9686 6.68302C11.1375 7.13204 11.174 7.62003 11.0739 8.08917C10.9738 8.55831 10.7412 8.98893 10.4037 9.33002L8.80956 10.9232C10.5965 14.0639 13.1985 16.6644 16.341 18.4503L17.9352 16.857C18.2765 16.5197 18.7074 16.2873 19.1768 16.1872C19.6462 16.0872 20.1345 16.1237 20.5838 16.2925C21.7226 16.7172 22.9059 17.0118 24.111 17.1707C24.7208 17.2566 25.2777 17.5636 25.6757 18.0331C26.0738 18.5027 26.2853 19.1021 26.27 19.7173Z" stroke="white" stroke-width="2" stroke-linecap="round" stroke-linejoin="round"/>
</svg>
