<svg width="38" height="34" viewBox="0 0 38 34" fill="none" xmlns="http://www.w3.org/2000/svg">
<path d="M37.7897 5.66264C37.7353 5.53115 37.6431 5.41878 37.5247 5.33977C37.4064 5.26076 37.2672 5.21866 37.1249 5.21881H31.2312C30.5603 3.92924 29.5512 2.84656 28.3119 2.08685C27.0726 1.32713 25.6499 0.919037 24.1964 0.906309C23.1676 0.891539 22.1464 1.08354 21.1932 1.47091C20.2401 1.85828 19.3744 2.43314 18.6476 3.16139C17.8958 3.8976 17.2991 4.77695 16.8926 5.74754C16.4862 6.71813 16.2783 7.76031 16.2812 8.81256V10.8179C8.4378 9.13061 1.90616 2.62412 1.83608 2.55225C1.73982 2.45512 1.61785 2.38747 1.48449 2.35723C1.35114 2.327 1.21192 2.33543 1.08319 2.38154C0.954177 2.42797 0.841137 2.51032 0.757402 2.61889C0.673668 2.72746 0.622734 2.85771 0.610608 2.99428C-0.144079 11.3713 2.27631 16.9578 4.43975 20.1706C5.61582 21.9537 7.08977 23.5213 8.79717 24.8047C5.97967 28.4865 0.987952 30.3984 0.935842 30.4182C0.83339 30.4558 0.740862 30.5163 0.665278 30.5951C0.589694 30.6739 0.53304 30.7688 0.499615 30.8727C0.46619 30.9766 0.456871 31.0868 0.472367 31.1948C0.487862 31.3029 0.527764 31.406 0.589045 31.4963C0.637561 31.5682 1.09037 32.2151 2.30326 32.8188C3.8342 33.5807 5.87725 33.9688 8.3749 33.9688C20.7895 33.9688 31.1467 24.3447 32.0739 12.0056L37.6334 6.44607C37.7341 6.3456 37.8026 6.21753 37.8305 6.07808C37.8583 5.93862 37.8441 5.79404 37.7897 5.66264ZM30.8664 11.179C30.7428 11.303 30.6686 11.4679 30.658 11.6426C29.9105 23.3565 20.1229 32.5313 8.3749 32.5313C5.16748 32.5313 3.41014 31.8323 2.53506 31.2969C4.39842 30.4308 8.18623 28.3608 10.4108 25.024C10.4649 24.9423 10.5017 24.8505 10.519 24.754C10.5363 24.6576 10.5337 24.5587 10.5114 24.4633C10.4898 24.3675 10.4484 24.2773 10.3899 24.1984C10.3314 24.1195 10.2571 24.0537 10.1718 24.0051C10.1484 23.9908 7.76576 22.5676 5.58616 19.3063C3.70303 16.487 1.61686 11.7073 1.9403 4.61686C4.30678 6.70482 10.1125 11.2653 16.8813 12.3973C16.9851 12.4147 17.0915 12.4091 17.1929 12.3808C17.2943 12.3526 17.3882 12.3024 17.4681 12.2338C17.548 12.1653 17.6118 12.08 17.6551 11.9841C17.6984 11.8881 17.7201 11.7838 17.7187 11.6786V8.81256C17.7172 7.95077 17.888 7.09738 18.2209 6.30251C18.5539 5.50763 19.0423 4.7873 19.6575 4.18381C20.2515 3.59022 20.9583 3.12159 21.7363 2.80557C22.5143 2.48956 23.3477 2.33255 24.1874 2.34381C26.739 2.37615 29.127 3.93584 30.1279 6.22686C30.1834 6.35314 30.2741 6.46078 30.3891 6.53693C30.5041 6.61308 30.6386 6.65452 30.7765 6.65631H35.3891L30.8664 11.179Z" fill="white"/>
</svg>
