<svg width="45" height="39" viewBox="0 0 45 39" fill="none" xmlns="http://www.w3.org/2000/svg">
<path d="M0.0319443 22.1263C0.0319443 20.7998 0.606503 19.8574 1.75562 19.2992C2.90473 18.741 4.01534 18.8343 5.08741 19.5793L22.5007 31.9162L39.914 19.5793C40.9839 18.8365 42.0945 18.7431 43.2457 19.2992C44.397 19.8553 44.9716 20.7976 44.9694 22.1263C44.9694 22.71 44.8218 23.2406 44.5265 23.7182C44.2312 24.1957 43.8706 24.5937 43.4448 24.9121L24.3463 38.3633C24.0788 38.5755 23.7846 38.7347 23.4636 38.8408C23.1426 38.9469 22.8217 39 22.5007 39C22.1797 39 21.8716 38.9469 21.5763 38.8408C21.2809 38.7347 20.9739 38.5755 20.655 38.3633L1.55661 24.9121C1.12864 24.5937 0.766991 24.1957 0.471687 23.7182C0.176384 23.2406 0.0298042 22.71 0.0319443 22.1263ZM0.0319443 3.1832C0.0319443 1.85665 0.606503 0.915329 1.75562 0.35924C2.90473 -0.196849 4.01534 -0.10452 5.08741 0.636225L22.5007 12.9731L39.914 0.636225C40.9839 -0.106643 42.0945 -0.198971 43.2457 0.35924C44.397 0.917452 44.9716 1.85877 44.9694 3.1832C44.9694 3.76688 44.8218 4.2975 44.5265 4.77506C44.2312 5.25261 43.8706 5.65058 43.4448 5.96895L24.3463 19.4201C24.0788 19.6324 23.7846 19.7916 23.4636 19.8977C23.1426 20.0038 22.8217 20.0569 22.5007 20.0569C22.1797 20.0569 21.8587 20.0038 21.5377 19.8977C21.2168 19.7916 20.9225 19.6324 20.655 19.4201L1.55661 5.96895C1.12864 5.65058 0.766991 5.25261 0.471687 4.77506C0.176384 4.2975 0.0298042 3.76688 0.0319443 3.1832Z" fill="#FA6F6F"/>
</svg>
